<?xml version="1.0" encoding="utf-8"?>
<!-- Generator: Adobe Illustrator 23.0.1, SVG Export Plug-In . SVG Version: 6.00 Build 0)  -->
<svg version="1.1" id="Layer_1" xmlns="http://www.w3.org/2000/svg" xmlns:xlink="http://www.w3.org/1999/xlink" x="0px" y="0px"
	 viewBox="0 0 319.08 232.82" style="enable-background:new 0 0 319.08 232.82;" xml:space="preserve">
<style type="text/css">
	.st0{clip-path:url(#SVGID_2_);}
	.st1{fill:#4F4F4D;}
	.st2{fill:#96957E;}
	.st3{fill:#7F7E69;}
	.st4{fill:#282827;}
	.st5{fill:#BFA166;}
	.st6{fill:#A08350;}
	.st7{fill:#BFBEB8;}
	.st8{fill:#494949;}
	.st9{fill:#D8D7D2;}
	.st10{fill:#383838;}
	.st11{fill:#93794C;}
	.st12{fill:#3F3D3A;}
	.st13{fill:#D3B276;}
	.st14{fill:#262626;}
	.st15{fill:#605540;}
	.st16{fill:#3F3729;}
	.st17{fill:#877760;}
	.st18{fill:#9AE3EF;}
</style>
<g>
	<defs>
		<rect id="SVGID_1_" x="2.27" width="315.12" height="232.68"/>
	</defs>
	<clipPath id="SVGID_2_">
		<use xlink:href="#SVGID_1_"  style="overflow:visible;"/>
	</clipPath>
	<g class="st0">
		<path class="st1" d="M66.31,60.12c0.8-2.45,3.44-10.87,2.74-13.39c0,0,2.08,3.97-2.69,13.53c0.05,0.12,0.09,0.24,0.14,0.35
			c0,0,9.07-7.41,3.11-15.61C69.62,45,62.88,51.12,66.31,60.12z"/>
		<path class="st1" d="M38.77,55.32c0.8-2.45,3.44-10.87,2.74-13.39c0,0,2.08,3.97-2.69,13.53c0.05,0.12,0.09,0.24,0.14,0.35
			c0,0,9.07-7.41,3.11-15.61C42.07,40.19,35.33,46.31,38.77,55.32z"/>
		<path class="st1" d="M45.08,20.26c0.8-2.45,3.44-10.87,2.74-13.39c0,0,2.08,3.97-2.69,13.53c0.05,0.12,0.09,0.24,0.14,0.35
			c0,0,9.07-7.41,3.11-15.61C48.38,5.13,41.64,11.25,45.08,20.26z"/>
		<path class="st1" d="M81.31,8.77c0.8-2.45,3.44-10.87,2.74-13.39c0,0,2.08,3.97-2.69,13.53c0.05,0.12,0.09,0.24,0.14,0.35
			c0,0,9.07-7.41,3.11-15.61C84.62-6.36,77.88-0.24,81.31,8.77z"/>
		<path class="st1" d="M79.32,14.33c-1.95-1.87-8.69-8.18-11.47-8.93c0,0,4.87,0.41,11.63,8.95c0.14,0.02,0.27,0.05,0.41,0.07
			c0,0-2.51-10.77-13.42-10.33C66.46,4.09,68.92,12.4,79.32,14.33z"/>
		<path class="st1" d="M96.23,9.29c-2.78,0.57-12.27,2.6-14.39,4.37c0,0,2.86-3.56,14.49-4.48C96.43,9.09,96.52,9,96.61,8.9
			c0,0-11.64-3.49-16.73,5.17C79.88,14.07,89.13,16.37,96.23,9.29z"/>
		<path class="st1" d="M102.28,34.23c-2.47,1.28-10.86,5.74-12.29,8c0,0,1.55-4.16,12.36-8.13c0.06-0.11,0.11-0.23,0.17-0.34
			c0,0-12.27-0.24-14.27,9.38C88.25,43.15,97.84,42.88,102.28,34.23z"/>
		<path class="st1" d="M126.26,52.64c-2.47,1.28-10.86,5.74-12.29,8c0,0,1.55-4.16,12.36-8.13c0.06-0.11,0.11-0.23,0.17-0.34
			c0,0-12.27-0.24-14.27,9.38C112.23,61.55,121.81,61.29,126.26,52.64z"/>
		<path class="st1" d="M186.53,11.6c-2.84,0.27-12.52,1.29-14.86,2.83c0,0,3.3-3.24,14.98-2.92c0.1-0.08,0.21-0.17,0.31-0.25
			c0,0-11.1-4.69-17.29,3.37C169.67,14.63,178.55,17.88,186.53,11.6z"/>
		<path class="st1" d="M156.73,9.55c1.42,1.04,6.21,4.62,6.86,6.19c0,0-0.5-2.77-6.89-6.27c-0.02-0.08-0.05-0.15-0.07-0.23
			c0,0,7.79,0.97,7.95,7.24C164.59,16.47,158.55,15.43,156.73,9.55z"/>
		<path class="st1" d="M132.38,1.77c1.42,1.04,6.21,4.62,6.86,6.19c0,0-0.5-2.77-6.89-6.27c-0.02-0.08-0.05-0.15-0.07-0.23
			c0,0,7.79,0.97,7.95,7.24C140.23,8.69,134.2,7.64,132.38,1.77z"/>
		<path class="st1" d="M129.33,17.93c1.82,0.08,8.06,0.43,9.62,1.34c0,0-2.24-1.96-9.69-1.39c-0.07-0.05-0.14-0.1-0.21-0.15
			c0,0,6.91-3.35,11.19,1.61C140.23,19.33,134.68,21.69,129.33,17.93z"/>
		<path class="st1" d="M287.34,40.42c-2.06,1.07-9.04,4.78-10.24,6.67c0,0,1.29-3.47,10.29-6.77c0.05-0.09,0.1-0.19,0.14-0.29
			c0,0-10.22-0.2-11.88,7.82C275.65,47.84,283.64,47.62,287.34,40.42z"/>
		<path class="st1" d="M283.4,14.82c-2.06,1.07-9.04,4.78-10.24,6.67c0,0,1.29-3.47,10.29-6.77c0.05-0.09,0.1-0.19,0.14-0.29
			c0,0-10.22-0.2-11.88,7.82C271.71,22.24,279.7,22.02,283.4,14.82z"/>
		<path class="st1" d="M278.64,31.77c-1.77-1.43-7.86-6.24-10.23-6.68c0,0,4.08,0.03,10.36,6.69c0.12,0.01,0.23,0.02,0.35,0.03
			c0,0-2.93-8.78-11.96-7.73C267.16,24.09,269.85,30.83,278.64,31.77z"/>
		<path class="st1" d="M244.5,13.7c-2.02,1.12-8.89,5.01-10.02,6.92c0,0,1.18-3.5,10.07-7.03c0.04-0.1,0.09-0.19,0.13-0.29
			c0,0-10.22,0.06-11.63,8.12C233.05,21.42,241.03,20.99,244.5,13.7z"/>
		<path class="st1" d="M221.6,13.7c2.02,1.12,8.89,5.01,10.02,6.92c0,0-1.18-3.5-10.08-7.03c-0.04-0.1-0.09-0.19-0.13-0.29
			c0,0,10.22,0.06,11.63,8.12C233.05,21.42,225.07,20.99,221.6,13.7z"/>
		<path class="st1" d="M189.76,18.23c1.06,1.91,4.6,8.46,4.43,10.62c0,0,1.06-3.53-4.41-10.74c0.02-0.1,0.04-0.21,0.06-0.31
			c0,0,8.65,4.89,5.09,12.4C194.93,30.2,188.41,26.06,189.76,18.23z"/>
		<path class="st1" d="M193.82,31.95c-2.33-0.4-10.33-1.67-12.61-0.95c0,0,3.5-1.87,12.73,0.9c0.11-0.04,0.21-0.09,0.32-0.13
			c0,0-7.59-6.14-14.7-1.04C179.56,30.73,185.77,35.24,193.82,31.95z"/>
		<path class="st1" d="M269.12,46.19c-0.18,2.12-0.71,9.39,0.35,11.34c0,0-2.46-2.91-0.42-11.44c-0.06-0.09-0.12-0.18-0.18-0.27
			c0,0-5.96,7.44,0.48,13.2C269.35,59.02,273.66,52.99,269.12,46.19z"/>
		<path class="st1" d="M228.87,67.65c-0.13,1.49-0.5,6.59,0.24,7.96c0,0-1.73-2.04-0.29-8.03c-0.04-0.06-0.08-0.12-0.13-0.19
			c0,0-4.19,5.22,0.34,9.27C229.03,76.66,232.05,72.43,228.87,67.65z"/>
		<path class="st1" d="M229.62,57.74c-0.94,1.23-4.12,5.48-4.24,7c0,0-0.35-2.54,4.24-7.08c0-0.07,0-0.15-0.01-0.22
			c0,0-6.54,2.64-4.89,8.17C224.71,65.61,229.7,63.3,229.62,57.74z"/>
		<path class="st1" d="M225.18,45.84c-0.94,1.23-4.12,5.48-4.24,7c0,0-0.35-2.54,4.24-7.08c0-0.07,0-0.15-0.01-0.22
			c0,0-6.54,2.64-4.89,8.17C220.28,53.71,225.26,51.4,225.18,45.84z"/>
		<path class="st1" d="M212.1,48.37c0.94,1.23,4.12,5.48,4.24,7c0,0,0.35-2.54-4.24-7.08c0-0.07,0-0.15,0.01-0.22
			c0,0,6.54,2.64,4.89,8.17C217,56.23,212.02,53.93,212.1,48.37z"/>
		<path class="st1" d="M264.28,91.79c-0.18,2.12-0.71,9.39,0.35,11.34c0,0-2.46-2.91-0.42-11.44c-0.06-0.09-0.12-0.18-0.18-0.27
			c0,0-5.96,7.44,0.48,13.2C264.51,104.62,268.82,98.59,264.28,91.79z"/>
		<path class="st1" d="M273.13,81.78c-1.61,1.57-7.03,6.99-7.55,9.1c0,0,0.08-3.65,7.57-9.22c0.01-0.1,0.03-0.21,0.04-0.31
			c0,0-9.82,2.55-8.73,10.64C264.46,91.99,272,89.64,273.13,81.78z"/>
		<path class="st1" d="M76.82,38.52C74,38.13,64.35,36.9,61.64,37.85c0,0,4.12-2.37,15.32,0.61c0.12-0.06,0.25-0.11,0.37-0.17
			c0,0-9.39-7.08-17.68-0.7C59.65,37.59,67.31,42.76,76.82,38.52z"/>
		<path class="st1" d="M32.76,30.31c2.31-1.5,10.14-6.71,11.31-9.1c0,0-1.06,4.28-11.36,9.23c-0.04,0.12-0.09,0.24-0.13,0.36
			c0,0,12.23-0.89,13.11-10.65C45.69,20.15,36.18,21.3,32.76,30.31z"/>
		<path class="st1" d="M21.62,53.84c2.85,0.04,12.6,0.29,15.08,1.63c0,0-3.61-2.96-15.21-1.72c-0.11-0.07-0.22-0.15-0.34-0.23
			c0,0,10.59-5.56,17.56,1.98C38.72,55.51,30.2,59.46,21.62,53.84z"/>
		<polygon class="st1" points="214.39,45 236.46,43.35 245.42,46.81 256.01,47.96 265.51,47.14 276.28,47.96 263.68,44.2 
			256.01,45.18 247.07,42.4 243.98,40.01 248.59,31.57 256.47,30.54 264.66,25.75 267.44,24.41 277.65,21.78 267.18,21.78 
			254.37,27.73 245.94,29.08 240.84,38.06 228.85,38.76 228.99,30.12 234.65,21.78 233.99,15.4 237.21,8.36 232.09,14.25 231,21.78 
			223.21,29.96 223.21,39.51 213.67,40.78 200.88,45.31 196.18,50.84 194.4,48.73 196.55,42.49 197.97,37.62 197.97,29.94 
			189.69,27.38 193.56,31.22 193.56,38.39 189.69,46.83 191.47,56.4 182.71,66.72 179.95,82.71 171.94,95.37 155.94,105.92 
			144.85,93.83 140.65,85.51 140.95,79.33 140.95,74.23 142.92,64.73 144.8,57.25 142.96,50.86 141.3,37.32 134.92,29.12 
			145.58,27.38 148.65,24.39 156.69,20.92 165.7,19.8 170.13,16.32 172.77,13.46 175.96,7.87 179.85,2.43 175.62,4.9 169.56,12.3 
			164.97,16.06 154.43,17.41 143.73,23.71 134.82,26.76 130.31,25.56 126.5,20.26 139.88,9.62 158.11,8.12 169.65,0.17 
			177.61,-3.59 165.97,0 156.59,5.97 139.46,7.13 130.08,13.21 123.29,18.72 114.76,15.9 109.71,8.91 100.66,5.39 94.76,0 
			99.37,7.89 107.13,11.18 111.98,18.43 122.33,21.78 129.44,29.44 137.52,39.58 139.13,52.62 133.75,74.32 125.04,66.93 
			117.61,63.02 107.32,59.7 99.93,59.08 92.42,52.8 90.12,41.69 80.52,36.92 67.95,23.86 82.04,14.39 82.04,7.89 79.26,13.15 
			63.5,22.3 54.09,21.77 45.17,20.42 53.16,24.46 63.99,25.54 76.82,38.52 85.97,45.01 87.84,55.43 94.76,61.63 103.47,65.67 
			113.09,66.2 120,70.51 129.04,78.64 101.15,79.49 84.41,73.84 68.49,59.84 53.16,52.01 52.77,47.14 56.36,35.15 49.96,47.11 
			49.96,51.66 37.79,55.65 51.77,55.65 66.18,64.63 83.38,79.54 100.95,84.1 125.8,84.1 133.71,85.87 138.52,95.1 151.73,110.92 
			151.73,149.4 157.48,149.4 157.48,112.68 178.65,97.7 193.7,101.27 209.61,99.48 213.97,94.71 231.16,81.02 244.53,81.02 
			255.99,85.87 259.81,91.14 267.77,93.28 260.21,88.7 258.57,83.63 246.33,77.58 229.9,77.58 212.74,90.83 205.47,96.07 
			193.7,96.72 181.59,92.43 186.33,83.92 189.41,68.08 190.34,66.94 200.81,72.9 208.11,72.9 211.94,68.94 216.24,67.23 
			226.55,67.23 237.21,70.28 226.56,64.2 216.79,63.62 215.63,63.95 215.21,60.47 218.57,57.61 221.28,53.16 219.21,49.44 
			219.21,52.88 216.01,56.17 212.05,58.75 209.13,65.77 205.47,69.36 201.78,69.36 196.66,66.49 192.73,64.06 205.47,48.62 		"/>
		<path class="st1" d="M48.36,75.73c3.05-2.02,13.4-9.02,14.93-12.2c0,0-1.36,5.7-14.99,12.38c-0.06,0.16-0.11,0.32-0.17,0.48
			c0,0,16.26-1.31,17.3-14.29C65.43,62.09,52.81,63.71,48.36,75.73z"/>
		<path class="st1" d="M79.19,89.87c2.32-1.53,10.17-6.85,11.33-9.26c0,0-1.03,4.33-11.37,9.39c-0.04,0.12-0.09,0.24-0.13,0.36
			c0,0,12.33-0.99,13.13-10.84C92.15,79.52,82.57,80.76,79.19,89.87z"/>
	</g>
</g>
<g>
	<rect x="2.27" y="183.02" class="st2" width="315.12" height="49.65"/>
</g>
<g>
	<rect x="2.27" y="192.96" class="st3" width="315.12" height="16.65"/>
</g>
<g>
	<rect x="2.27" y="220.57" class="st3" width="315.12" height="12.26"/>
</g>
<g>
	<g>
		<g>
			<rect x="56.96" y="160.72" class="st4" width="6.4" height="71.95"/>
			<rect x="52.84" y="160.72" class="st4" width="6.4" height="71.95"/>
		</g>
		<g>
			<rect x="257.63" y="160.72" class="st4" width="6.4" height="71.95"/>
			<rect x="253.51" y="160.72" class="st4" width="6.4" height="71.95"/>
		</g>
		<polygon class="st5" points="289.92,155.43 29.94,155.43 58.95,142.58 256.81,142.58 		"/>
		<polygon class="st6" points="180.08,143.59 125.94,143.74 114.88,154.42 192.32,154.42 		"/>
		<g>
			<path class="st7" d="M181.25,141.53c2.56,0,4.64-1.86,4.64-4.16v-27.16c0-2.3-2.08-4.16-4.64-4.16h-49.73
				c-2.56,0-4.64,1.86-4.64,4.16v27.16c0,2.3,2.08,4.16,4.64,4.16h48.84H181.25z M133.54,140.32c-2.56,0-4.64-1.86-4.64-4.16v-24.72
				c0-2.3,2.08-4.16,4.64-4.16h45.68c2.56,0,4.64,1.86,4.64,4.16v24.72c0,2.3-2.08,4.16-4.64,4.16H133.54z"/>
			<path class="st8" d="M183.86,136.16v-24.72c0-2.3-2.08-4.16-4.64-4.16h-45.68c-2.56,0-4.64,1.86-4.64,4.16v24.72
				c0,2.3,2.08,4.16,4.64,4.16h45.68C181.78,140.32,183.86,138.45,183.86,136.16z"/>
			<path class="st9" d="M192.13,151.48l-10.38-9.42c-0.37-0.33-0.87-0.52-1.39-0.52h-48.84h-2c-0.82,0-1.6,0.3-2.15,0.84l-9.7,9.28
				l0.18-0.17H192.13z M127.85,144.29l2.72-0.02l-1.31,1.74l-3.1,0.02L127.85,144.29z M141.75,146.68l2.93-0.02l-0.49,1.12
				l-3.06,0.02L141.75,146.68z M140.21,147.8l-3.12,0.02l0.7-1.11l3.02-0.02L140.21,147.8z M145.58,146.66l2.9-0.02l-0.35,1.12
				l-3.04,0.02L145.58,146.66z M149.34,146.64l2.03-0.01l-0.24,1.12l-2.14,0.01L149.34,146.64z M152.22,146.62l4.4-0.03l0.26,1.12
				l-4.9,0.03L152.22,146.62z M157.47,146.59l3.23-0.02l0.35,1.12l-3.32,0.02L157.47,146.59z M161.57,146.56l2.87-0.02l0.49,1.12
				l-3.01,0.02L161.57,146.56z M165.33,146.54l2.9-0.02l0.61,1.12l-3.02,0.02L165.33,146.54z M169.15,146.51l2.99-0.02l0.71,1.12
				l-3.08,0.02L169.15,146.51z M173.09,146.49l2.98-0.02l0.79,1.12l-3.07,0.02L173.09,146.49z M172.62,145.75l-1.1-1.75l2.78-0.02
				l1.24,1.75L172.62,145.75z M171.67,145.75l-2.92,0.02l-0.95-1.75l2.78-0.02L171.67,145.75z M167.82,145.78l-2.82,0.02l-0.76-1.75
				l2.62-0.02L167.82,145.78z M164.12,145.8l-2.78,0.02l-0.54-1.74l2.56-0.02L164.12,145.8z M160.47,145.82l-3.17,0.02l-0.4-1.74
				l3.04-0.02L160.47,145.82z M156.45,145.85l-4.07,0.03l0.37-1.75l3.3-0.02L156.45,145.85z M151.53,145.88l-1.96,0.01l0.54-1.75
				l1.79-0.01L151.53,145.88z M148.71,145.89l-2.8,0.02l0.76-1.75l2.59-0.02L148.71,145.89z M145.01,145.92l-2.85,0.02l0.95-1.74
				l2.65-0.02L145.01,145.92z M141.23,145.94l-2.96,0.02l1.1-1.74l2.81-0.02L141.23,145.94z M137.31,145.96l-2.96,0.02l1.23-1.74
				l2.83-0.02L137.31,145.96z M136.84,146.71l-0.7,1.11l-3.11,0.02l0.79-1.11L136.84,146.71z M135.66,148.58l-0.99,1.57h-3.28
				l1.1-1.55L135.66,148.58z M136.62,148.57l3.18-0.02l-0.87,1.59h-3.3L136.62,148.57z M140.73,148.55l3.14-0.02l-0.7,1.61h-3.31
				L140.73,148.55z M144.77,148.52l3.13-0.02l-0.51,1.64h-3.33L144.77,148.52z M148.77,148.5l2.21-0.01l-0.35,1.66h-2.36
				L148.77,148.5z M151.82,148.48l5.23-0.03l0.39,1.69h-5.98L151.82,148.48z M157.9,148.45l3.38-0.02l0.53,1.71h-3.52L157.9,148.45z
				 M162.14,148.42l3.11-0.02l0.76,1.74h-3.33L162.14,148.42z M166.14,148.4l3.11-0.02l0.96,1.76h-3.31L166.14,148.4z
				 M170.17,148.38l3.14-0.02l1.12,1.78h-3.3L170.17,148.38z M174.26,148.35l3.12-0.02l1.28,1.81h-3.28L174.26,148.35z
				 M178.37,148.33l3.18-0.02l1.38,1.83h-3.28L178.37,148.33z M177.84,147.59l-0.79-1.12l3.09-0.02l0.85,1.12L177.84,147.59z
				 M181.14,146.44l3.61-0.02l1.14,1.12l-3.9,0.02L181.14,146.44z M180.58,145.7l-1.32-1.75l2.97-0.02l1.77,1.75L180.58,145.7z
				 M179.58,145.7l-3.05,0.02l-1.24-1.75l2.97-0.02L179.58,145.7z M174.76,143.23l-0.65-0.92h2.91l0.68,0.9L174.76,143.23z
				 M173.78,143.24l-2.72,0.02l-0.59-0.94h2.66L173.78,143.24z M170.1,143.26l-2.72,0.02l-0.53-0.96h2.65L170.1,143.26z
				 M166.46,143.29l-2.54,0.02l-0.43-0.99h2.44L166.46,143.29z M163.03,143.31l-2.47,0.02l-0.31-1.01h2.35L163.03,143.31z
				 M159.7,143.33l-2.98,0.02l-0.24-1.04h2.9L159.7,143.33z M155.88,143.36l-2.96,0.02l0.23-1.06h2.5L155.88,143.36z M152.06,143.38
				l-1.72,0.01l0.33-1.08h1.61L152.06,143.38z M149.48,143.4l-2.49,0.02l0.48-1.1h2.35L149.48,143.4z M146.09,143.42l-2.57,0.02
				l0.61-1.12h2.44L146.09,143.42z M142.59,143.45l-2.75,0.02l0.72-1.15h2.65L142.59,143.45z M138.88,143.47l-2.77,0.02l0.83-1.17
				h2.66L138.88,143.47z M135.12,143.5l-2.98,0.02l0.91-1.2h2.91L135.12,143.5z M134.59,144.25l-1.23,1.74l-3.1,0.02l1.31-1.74
				L134.59,144.25z M125.43,146.78l3.26-0.02l-0.84,1.11l-3.5,0.02L125.43,146.78z M129.7,146.76l3.13-0.02l-0.79,1.11l-3.18,0.02
				L129.7,146.76z M131.51,148.6l-1.09,1.54h-3.28l1.15-1.52L131.51,148.6z M183.93,150.14l-1.39-1.84l4.09-0.02l1.89,1.86H183.93z
				 M180.6,142.32l0.88,0.87l-2.78,0.02l-0.67-0.89H180.6z M129.77,142.32h2.28l-0.91,1.21l-2.55,0.02L129.77,142.32z
				 M123.62,148.64l3.66-0.02l-1.15,1.52h-3.97L123.62,148.64z"/>
			<polygon class="st10" points="151.37,146.62 149.34,146.64 149,147.75 151.13,147.74 			"/>
			<polygon class="st10" points="164.44,146.54 161.57,146.56 161.91,147.68 164.93,147.66 			"/>
			<polygon class="st10" points="148.48,146.64 145.58,146.66 145.09,147.77 148.13,147.76 			"/>
			<polygon class="st10" points="160.7,146.57 157.47,146.59 157.73,147.7 161.05,147.68 			"/>
			<polygon class="st10" points="156.62,146.59 152.22,146.62 151.98,147.74 156.88,147.71 			"/>
			<polygon class="st10" points="129.25,146.01 130.57,144.27 127.85,144.29 126.16,146.03 			"/>
			<polygon class="st10" points="137.1,147.82 140.21,147.8 140.82,146.69 137.8,146.71 			"/>
			<polygon class="st10" points="168.23,146.52 165.33,146.54 165.82,147.66 168.84,147.64 			"/>
			<polygon class="st10" points="144.68,146.66 141.75,146.68 141.14,147.8 144.2,147.78 			"/>
			<polygon class="st10" points="136.11,143.49 138.88,143.47 139.61,142.32 136.94,142.32 			"/>
			<polygon class="st10" points="174.11,142.32 174.76,143.23 177.7,143.21 177.02,142.32 			"/>
			<polygon class="st10" points="171.05,143.26 173.78,143.24 173.13,142.32 170.46,142.32 			"/>
			<polygon class="st10" points="179.26,143.95 180.58,145.7 184,145.68 182.23,143.93 			"/>
			<polygon class="st10" points="176.52,145.72 179.58,145.7 178.26,143.95 175.29,143.97 			"/>
			<polygon class="st10" points="160.57,143.33 163.03,143.31 162.6,142.32 160.25,142.32 			"/>
			<polygon class="st10" points="167.39,143.28 170.1,143.26 169.51,142.32 166.86,142.32 			"/>
			<polygon class="st10" points="163.92,143.3 166.46,143.29 165.93,142.32 163.49,142.32 			"/>
			<polygon class="st10" points="177.39,148.33 174.26,148.35 175.39,150.14 178.67,150.14 			"/>
			<polygon class="st10" points="161.28,148.43 157.9,148.45 158.3,150.14 161.81,150.14 			"/>
			<polygon class="st10" points="169.25,148.38 166.14,148.4 166.9,150.14 170.21,150.14 			"/>
			<polygon class="st10" points="184.75,146.42 181.14,146.44 181.99,147.56 185.89,147.54 			"/>
			<polygon class="st10" points="165.25,148.4 162.14,148.42 162.68,150.14 166.01,150.14 			"/>
			<polygon class="st10" points="177.05,146.47 177.84,147.59 180.98,147.57 180.14,146.45 			"/>
			<polygon class="st10" points="156.72,143.35 159.7,143.33 159.39,142.32 156.48,142.32 			"/>
			<polygon class="st10" points="181.55,148.31 178.37,148.33 179.65,150.14 182.93,150.14 			"/>
			<polygon class="st10" points="173.31,148.36 170.17,148.38 171.13,150.14 174.44,150.14 			"/>
			<polygon class="st10" points="130.42,150.14 131.51,148.6 128.29,148.62 127.14,150.14 			"/>
			<polygon class="st10" points="132.83,146.74 129.7,146.76 128.86,147.87 132.04,147.85 			"/>
			<polygon class="st10" points="182.55,148.3 183.93,150.14 188.52,150.14 186.64,148.28 			"/>
			<polygon class="st10" points="127.85,147.87 128.69,146.76 125.43,146.78 124.35,147.89 			"/>
			<polygon class="st10" points="127.28,148.62 123.62,148.64 122.17,150.14 126.14,150.14 			"/>
			<polygon class="st10" points="131.13,143.52 132.04,142.32 129.77,142.32 128.58,143.54 			"/>
			<polygon class="st10" points="178.7,143.21 181.48,143.19 180.6,142.32 178.03,142.32 			"/>
			<polygon class="st10" points="150.35,143.4 152.06,143.38 152.29,142.32 150.68,142.32 			"/>
			<polygon class="st10" points="133.36,145.99 134.59,144.25 131.58,144.27 130.26,146.01 			"/>
			<polygon class="st10" points="146.99,143.42 149.48,143.4 149.82,142.32 147.47,142.32 			"/>
			<polygon class="st10" points="172.14,146.5 169.15,146.51 169.76,147.63 172.84,147.61 			"/>
			<polygon class="st10" points="143.52,143.44 146.09,143.42 146.57,142.32 144.14,142.32 			"/>
			<polygon class="st10" points="139.84,143.47 142.59,143.45 143.21,142.32 140.56,142.32 			"/>
			<polygon class="st10" points="132.14,143.52 135.12,143.5 135.96,142.32 133.05,142.32 			"/>
			<polygon class="st10" points="152.91,143.38 155.88,143.36 155.63,142.32 153.14,142.32 			"/>
			<polygon class="st10" points="134.35,145.98 137.31,145.96 138.41,144.22 135.58,144.24 			"/>
			<polygon class="st10" points="145.9,145.91 148.71,145.89 149.25,144.15 146.66,144.17 			"/>
			<polygon class="st10" points="142.16,145.93 145.01,145.92 145.77,144.17 143.11,144.19 			"/>
			<polygon class="st10" points="138.27,145.96 141.23,145.94 142.18,144.2 139.37,144.21 			"/>
			<polygon class="st10" points="136.14,147.83 136.84,146.71 133.82,146.73 133.03,147.84 			"/>
			<polygon class="st10" points="139.8,148.55 136.62,148.57 135.63,150.14 138.93,150.14 			"/>
			<polygon class="st10" points="134.68,150.14 135.66,148.58 132.5,148.59 131.4,150.14 			"/>
			<polygon class="st10" points="168.75,145.77 171.67,145.75 170.57,144.01 167.79,144.02 			"/>
			<polygon class="st10" points="171.52,144 172.62,145.75 175.54,145.73 174.3,143.98 			"/>
			<polygon class="st10" points="176.07,146.47 173.09,146.49 173.8,147.61 176.86,147.59 			"/>
			<polygon class="st10" points="143.87,148.53 140.73,148.55 139.86,150.14 143.17,150.14 			"/>
			<polygon class="st10" points="157.3,145.84 160.47,145.82 159.93,144.08 156.9,144.1 			"/>
			<polygon class="st10" points="165.01,145.79 167.82,145.78 166.87,144.03 164.25,144.05 			"/>
			<polygon class="st10" points="152.38,145.87 156.45,145.85 156.05,144.1 152.75,144.12 			"/>
			<polygon class="st10" points="161.34,145.82 164.12,145.8 163.36,144.05 160.8,144.07 			"/>
			<polygon class="st10" points="149.57,145.89 151.53,145.88 151.9,144.13 150.11,144.14 			"/>
			<polygon class="st10" points="150.97,148.49 148.77,148.5 148.26,150.14 150.62,150.14 			"/>
			<polygon class="st10" points="147.9,148.5 144.77,148.52 144.06,150.14 147.39,150.14 			"/>
			<polygon class="st10" points="157.05,148.45 151.82,148.48 151.47,150.14 157.45,150.14 			"/>
			<polygon class="st7" points="192.13,151.48 192.13,151.48 117.85,151.48 117.67,151.65 117.67,153.19 192.32,153.19 
				192.32,151.65 			"/>
		</g>
		<polygon class="st6" points="116.55,143.21 67.63,143.21 56.76,149.01 112.12,149.01 		"/>
		<rect x="29.94" y="155.43" class="st11" width="259.98" height="6.4"/>
		<rect x="279.3" y="160.72" class="st4" width="6.4" height="71.95"/>
		<rect x="34.07" y="160.72" class="st4" width="6.4" height="71.95"/>
		<rect x="34.07" y="160.72" class="st4" width="6.4" height="71.95"/>
		<rect x="29.94" y="160.72" class="st12" width="259.98" height="6.4"/>
		<rect x="29.94" y="155.43" class="st13" width="259.98" height="2.05"/>
		<g>
			<rect x="29.94" y="160.72" class="st12" width="6.4" height="71.95"/>
		</g>
	</g>
	<rect x="283.52" y="160.72" class="st12" width="6.4" height="71.95"/>
</g>
<g>
	<g>
		<g>
			<path class="st14" d="M205.98,201.28h-9.36c-3.73,0-6.75,2.71-6.75,6.05v25.5h22.85v-25.5
				C212.72,203.99,209.7,201.28,205.98,201.28z"/>
			<path class="st12" d="M212.72,207.33c0-3.34-3.02-6.05-6.75-6.05h-9.36c-0.97,0-1.89,0.18-2.72,0.51v31.03h18.82V207.33z"/>
		</g>
		<path class="st14" d="M171.45,205.96L171.45,205.96c0,6.95,6.29,12.59,14.05,12.59h28.11c7.76,0,14.05-5.64,14.05-12.59v0H171.45z
			"/>
		<path class="st12" d="M181.11,205.96L181.11,205.96l-9.66,0v0c0,6.95,6.29,12.59,14.05,12.59h9.66
			C187.4,218.55,181.11,212.91,181.11,205.96z"/>
	</g>
	<g>
		<path class="st14" d="M161.89,176.48c-2.3,0-4.17,1.67-4.17,3.74v0c0,0.36,0.06,0.7,0.16,1.03c0,0.01,0,0.01,0.01,0.02
			c0.01,0.05,0.03,0.09,0.05,0.14c0,0.01,0,0.01,0.01,0.02c0.09,0.24,0.21,0.47,0.35,0.69c0,0,0.01,0.01,0.01,0.01
			c0.03,0.04,0.05,0.08,0.08,0.11c0.01,0.01,0.01,0.02,0.02,0.02c0.03,0.04,0.05,0.07,0.08,0.11c0.01,0.01,0.01,0.02,0.02,0.02
			c0.03,0.04,0.06,0.07,0.09,0.11c0,0,0.01,0.01,0.01,0.01c0.1,0.11,0.2,0.22,0.31,0.32c0.01,0.01,0.01,0.01,0.02,0.02
			c0.03,0.03,0.06,0.05,0.09,0.08c0.01,0.01,0.03,0.02,0.04,0.04c0.03,0.02,0.06,0.05,0.09,0.07c0.02,0.01,0.03,0.03,0.05,0.04
			c0.03,0.02,0.06,0.04,0.09,0.07c0.02,0.01,0.04,0.03,0.06,0.04c0.03,0.02,0.06,0.04,0.09,0.06c0.02,0.01,0.04,0.03,0.06,0.04
			c0.05,0.03,0.1,0.06,0.15,0.09c0.03,0.02,0.05,0.03,0.08,0.05c0.03,0.01,0.05,0.03,0.08,0.04c0.03,0.01,0.06,0.03,0.08,0.04
			c0.03,0.01,0.05,0.03,0.08,0.04c0.03,0.01,0.06,0.03,0.09,0.04c0.03,0.01,0.05,0.02,0.08,0.03c0.03,0.01,0.06,0.03,0.09,0.04
			c0.03,0.01,0.05,0.02,0.08,0.03c0.03,0.01,0.07,0.02,0.1,0.04c0.02,0.01,0.05,0.02,0.07,0.03c0.04,0.01,0.09,0.03,0.13,0.04
			c0.02,0,0.03,0.01,0.04,0.01c0.06,0.02,0.12,0.03,0.18,0.05c0.02,0,0.04,0.01,0.06,0.01c0.04,0.01,0.08,0.02,0.13,0.03
			c0.02,0,0.05,0.01,0.07,0.01c0.04,0.01,0.08,0.01,0.12,0.02c0.03,0,0.05,0.01,0.08,0.01c0.04,0.01,0.08,0.01,0.12,0.01
			c0.03,0,0.05,0.01,0.08,0.01c0.04,0,0.09,0.01,0.13,0.01c0.02,0,0.04,0,0.07,0c0.07,0,0.13,0,0.2,0h1.19v23.06h7.07v-23.06h26.08
			v-2.85v-4.62H161.89z"/>
		<g>
			<rect x="140.02" y="172.15" class="st14" width="8.33" height="34.86"/>
			<g>
				<path class="st10" d="M138.61,171.03c-2.71,0-4.91,1.97-4.91,4.4l0,0c0,2.43,2.2,4.4,4.91,4.4h40.46v-8.81H138.61z"/>
				<path class="st14" d="M133.84,176.48c0.52,1.93,2.46,3.36,4.78,3.36h40.46v-3.36H133.84z"/>
			</g>
		</g>
		<g>
			<path class="st1" d="M138.24,197.89c-3.6,0-6.53,2.62-6.53,5.85v0c0,3.23,2.92,5.85,6.53,5.85h102.83
				c7.21,0,13.05-5.24,13.05-11.7v0H138.24z"/>
			<path class="st10" d="M254.12,197.89H138.24c-3.07,0-5.64,1.9-6.34,4.45h122.22V197.89z"/>
			<g>
				<path class="st1" d="M224.26,209.59h-50.58v-55.21c0-22.25,18.04-40.29,40.29-40.29h0c22.25,0,40.29,18.04,40.29,40.29v25.21
					C254.26,196.16,240.83,209.59,224.26,209.59z"/>
				<path class="st10" d="M197.36,114.09h-9.17c-8.09,0-14.65,5.88-14.65,13.13v82.37h9.17v-82.37
					C182.71,119.97,189.27,114.09,197.36,114.09z"/>
			</g>
			<path class="st10" d="M248.03,131.55h-56c-1.35,0-2.45-1.1-2.45-2.45l0,0c0-1.35,1.1-2.45,2.45-2.45h56
				c1.35,0,2.45,1.1,2.45,2.45v0C250.48,130.45,249.39,131.55,248.03,131.55z"/>
			<path class="st10" d="M247.75,141.7h-55.43c-1.51,0-2.74-1.1-2.74-2.45l0,0c0-1.35,1.22-2.45,2.74-2.45h55.43
				c1.51,0,2.74,1.1,2.74,2.45l0,0C250.48,140.6,249.26,141.7,247.75,141.7z"/>
			<path class="st10" d="M247.75,151.85h-55.43c-1.51,0-2.74-1.1-2.74-2.45l0,0c0-1.35,1.22-2.45,2.74-2.45h55.43
				c1.51,0,2.74,1.1,2.74,2.45l0,0C250.48,150.75,249.26,151.85,247.75,151.85z"/>
			<path class="st10" d="M248.03,162h-56c-1.35,0-2.45-1.1-2.45-2.45l0,0c0-1.35,1.1-2.45,2.45-2.45h56c1.35,0,2.45,1.1,2.45,2.45
				l0,0C250.48,160.9,249.39,162,248.03,162z"/>
			<path class="st10" d="M247.75,172.15h-55.43c-1.51,0-2.74-1.1-2.74-2.45l0,0c0-1.35,1.22-2.45,2.74-2.45h55.43
				c1.51,0,2.74,1.1,2.74,2.45l0,0C250.48,171.05,249.26,172.15,247.75,172.15z"/>
			<path class="st10" d="M248.03,182.29h-56c-1.35,0-2.45-1.1-2.45-2.45l0,0c0-1.35,1.1-2.45,2.45-2.45h56
				c1.35,0,2.45,1.1,2.45,2.45l0,0C250.48,181.2,249.39,182.29,248.03,182.29z"/>
			<path class="st10" d="M247.75,192.44h-55.43c-1.51,0-2.74-1.1-2.74-2.45l0,0c0-1.35,1.22-2.45,2.74-2.45h55.43
				c1.51,0,2.74,1.1,2.74,2.45l0,0C250.48,191.35,249.26,192.44,247.75,192.44z"/>
		</g>
	</g>
</g>
<g>
	<polygon class="st15" points="108.87,117.71 116.55,143.59 111.59,143.59 107.7,127.77 	"/>
	<polygon class="st16" points="107.7,127.77 111.59,143.59 115.74,143.59 108.56,120.4 	"/>
	<g>
		<g>
			<path class="st15" d="M67.63,117.71v27.68h41.24v-27.68H67.63z M106.95,143.21h-37.4v-23.16h37.4V143.21z"/>
			<polygon class="st17" points="106.95,120.05 106.95,139.6 108.87,139.6 108.87,117.71 83.27,117.71 83.27,120.05 			"/>
			<rect x="69.24" y="119.54" class="st16" width="38.01" height="24.18"/>
			<rect x="69.55" y="120.05" class="st18" width="37.4" height="23.16"/>
			<polygon class="st12" points="104.41,126.65 81.23,141.7 86.65,136.8 80.66,133.46 69.55,141.07 69.55,143.21 106.95,143.21 
				106.95,129.39 			"/>
		</g>
	</g>
</g>
</svg>
